<svg xmlns="http://www.w3.org/2000/svg" xmlns:xlink="http://www.w3.org/1999/xlink" width="500" zoomAndPan="magnify" viewBox="0 0 375 374.999991" height="500" preserveAspectRatio="xMidYMid meet" version="1.0"><defs><g/><clipPath id="df70a04cef"><path d="M 106.304688 155.34375 L 147.554688 155.34375 L 147.554688 210.09375 L 106.304688 210.09375 Z M 106.304688 155.34375 " clip-rule="nonzero"/></clipPath></defs><path fill="#03989e" d="M 138.460938 167.214844 C 134.488281 167.214844 131.292969 170.394531 131.292969 174.347656 C 131.292969 178.304688 134.488281 181.484375 138.460938 181.484375 C 142.433594 181.484375 145.628906 178.304688 145.628906 174.347656 C 145.628906 170.394531 142.433594 167.214844 138.460938 167.214844 Z M 138.460938 167.214844 " fill-opacity="1" fill-rule="evenodd"/><g clip-path="url(#df70a04cef)"><path fill="#07da98" d="M 106.382812 155.34375 L 119.9375 155.34375 L 119.9375 188.621094 L 134.984375 188.621094 L 147.472656 210.09375 L 132.355469 210.09375 L 119.9375 188.621094 L 119.9375 210.09375 L 106.382812 210.09375 Z M 106.382812 155.34375 " fill-opacity="1" fill-rule="evenodd"/></g><g fill="#07da98" fill-opacity="1"><g transform="translate(157.866073, 207.704636)"><g><path d="M 38.253906 -10.667969 C 38.121094 -10.804688 37.984375 -10.871094 37.847656 -10.871094 C 37.710938 -10.871094 37.578125 -10.734375 37.441406 -10.53125 C 37.441406 -10.464844 37.371094 -10.394531 37.304688 -10.328125 C 35.0625 -7.882812 32.207031 -5.640625 28.265625 -3.261719 C 26.160156 -2.039062 23.917969 -0.816406 20.859375 -0.816406 C 19.367188 -0.816406 18.414062 -1.15625 17.804688 -1.765625 C 17.191406 -2.378906 16.917969 -3.328125 17.054688 -4.621094 C 17.257812 -6.386719 17.804688 -8.019531 18.414062 -9.582031 C 18.6875 -10.328125 18.957031 -11.007812 19.160156 -11.753906 C 19.230469 -12.027344 19.433594 -12.367188 19.570312 -12.640625 C 19.839844 -13.316406 20.179688 -13.996094 19.976562 -14.542969 C 19.839844 -14.882812 19.570312 -15.085938 19.160156 -15.355469 C 18.820312 -15.5625 18.480469 -15.628906 18.277344 -15.628906 C 17.53125 -15.628906 17.257812 -14.746094 16.988281 -13.996094 C 16.851562 -13.726562 16.785156 -13.453125 16.714844 -13.183594 C 14.472656 -8.492188 10.667969 -4.757812 4.960938 -1.765625 C 4.214844 -1.359375 3.195312 -0.882812 2.175781 -0.882812 C 2.039062 -0.882812 1.96875 -0.882812 1.835938 -0.882812 C 1.496094 -0.882812 1.292969 -1.019531 1.085938 -1.222656 C 0.746094 -1.628906 0.679688 -2.105469 0.746094 -2.515625 C 1.085938 -6.796875 3.195312 -10.53125 5.230469 -14.066406 C 6.046875 -15.5625 6.796875 -16.917969 7.472656 -18.347656 C 7.8125 -19.027344 8.019531 -19.570312 7.40625 -20.046875 C 7.066406 -20.316406 6.796875 -20.453125 6.589844 -20.453125 C 6.183594 -20.453125 5.84375 -20.179688 5.503906 -19.773438 C 1.15625 -14.132812 -1.15625 -8.902344 -1.835938 -3.195312 C -1.96875 -1.765625 -1.496094 -0.679688 -0.339844 0.339844 C 0.273438 0.882812 0.953125 1.15625 1.765625 1.15625 C 2.242188 1.15625 2.71875 1.019531 3.261719 0.882812 C 5.164062 0.273438 7 -0.679688 8.5625 -1.96875 C 9.851562 -3.058594 11.144531 -4.078125 12.433594 -5.164062 L 14.335938 -6.863281 L 14.40625 -6.386719 C 14.746094 -3.601562 15.628906 -1.628906 16.917969 -0.476562 C 17.804688 0.273438 18.957031 0.679688 20.25 0.679688 C 20.929688 0.679688 21.675781 0.542969 22.492188 0.339844 C 29.152344 -1.425781 33.976562 -5.503906 38.1875 -9.648438 C 38.390625 -9.851562 38.59375 -10.054688 38.59375 -10.261719 C 38.527344 -10.394531 38.460938 -10.53125 38.253906 -10.667969 Z M 38.253906 -10.667969 "/></g></g></g><g fill="#07da98" fill-opacity="1"><g transform="translate(194.488618, 207.704636)"><g><path d="M 23.648438 -10.734375 C 22.832031 -11.414062 16.988281 -5.910156 16.105469 -5.300781 C 13.453125 -3.328125 10.464844 -1.628906 7 -0.816406 C 5.367188 -0.40625 3.195312 0.273438 1.5625 -1.359375 C 0 -2.921875 1.292969 -4.484375 1.835938 -5.84375 C 3.941406 -10.941406 6.796875 -15.492188 9.71875 -20.046875 C 10.054688 -20.726562 10.941406 -21.472656 9.71875 -22.421875 C 8.5625 -23.375 7.949219 -22.421875 7.40625 -21.878906 C 3.261719 -17.328125 0.273438 -11.960938 -1.425781 -5.777344 C -1.902344 -4.078125 -1.96875 -1.96875 0.0664062 -0.203125 C 2.039062 1.5625 4.007812 1.222656 5.84375 0.746094 C 10.191406 -0.339844 14.066406 -2.378906 17.464844 -4.757812 C 19.160156 -5.980469 20.792969 -7.269531 22.355469 -8.628906 C 22.761719 -8.96875 23.851562 -9.511719 23.851562 -10.191406 C 23.851562 -10.464844 23.78125 -10.667969 23.648438 -10.734375 Z M 12.640625 -25.683594 C 14.132812 -25.820312 15.152344 -26.363281 15.085938 -27.859375 C 14.675781 -29.285156 13.792969 -29.761719 12.707031 -29.625 C 11.144531 -29.558594 10.261719 -28.878906 10.667969 -27.113281 C 11.007812 -25.957031 11.6875 -25.550781 12.640625 -25.683594 Z M 12.640625 -25.683594 "/></g></g></g><g fill="#07da98" fill-opacity="1"><g transform="translate(216.910591, 207.704636)"><g><path d="M 29.625 -10.53125 C 29.421875 -10.53125 29.21875 -10.394531 28.945312 -10.328125 C 28.8125 -10.261719 28.605469 -10.191406 28.472656 -10.125 C 28.0625 -10.054688 27.65625 -9.988281 27.246094 -9.988281 C 24.734375 -9.988281 22.082031 -11.414062 20.179688 -13.726562 C 18.480469 -15.832031 17.394531 -16.851562 16.308594 -16.851562 C 15.628906 -16.851562 14.8125 -16.445312 13.523438 -15.492188 C 11.621094 -14.066406 9.851562 -12.570312 8.019531 -11.007812 L 5.164062 -8.628906 C 4.960938 -8.425781 4.757812 -8.222656 4.484375 -7.949219 C 3.941406 -7.40625 3.398438 -6.796875 2.515625 -6.589844 L 2.308594 -6.589844 L 2.242188 -6.726562 C 1.902344 -7.132812 2.855469 -9.242188 2.855469 -9.242188 C 3.328125 -10.125 3.738281 -11.007812 4.144531 -11.890625 C 4.757812 -13.25 5.300781 -14.675781 5.910156 -16.105469 L 6.386719 -17.394531 C 6.457031 -17.53125 6.589844 -17.734375 6.660156 -17.871094 C 6.863281 -18.347656 7.203125 -18.820312 7 -19.296875 C 6.863281 -19.570312 6.660156 -19.773438 6.320312 -19.976562 C 6.117188 -20.113281 5.910156 -20.179688 5.707031 -20.179688 C 5.164062 -20.179688 4.757812 -19.5 4.417969 -19.027344 L 4.347656 -18.820312 C 1.628906 -14.40625 -0.542969 -9.445312 -2.378906 -3.667969 L -2.445312 -3.398438 C -2.71875 -2.648438 -2.988281 -1.835938 -1.96875 -1.085938 C -1.628906 -0.816406 -1.292969 -0.679688 -1.019531 -0.679688 C -0.542969 -0.679688 -0.273438 -1.085938 0 -1.496094 C 0.136719 -1.628906 0.273438 -1.765625 0.40625 -1.902344 L 2.039062 -3.601562 C 5.640625 -7.339844 9.378906 -11.144531 13.65625 -14.203125 C 14.882812 -15.085938 15.5625 -15.5625 16.308594 -15.5625 C 17.257812 -15.5625 18.007812 -14.746094 19.636719 -12.84375 C 21.609375 -10.601562 24.53125 -9.171875 27.113281 -9.171875 C 28.132812 -9.171875 29.082031 -9.378906 29.828125 -9.851562 C 30.101562 -9.988281 30.167969 -10.191406 30.101562 -10.261719 C 30.101562 -10.328125 29.964844 -10.464844 29.625 -10.53125 Z M 29.625 -10.53125 "/></g></g></g><g fill="#07da98" fill-opacity="1"><g transform="translate(245.651476, 207.704636)"><g><path d="M 24.394531 -11.007812 C 24.257812 -11.007812 24.121094 -11.007812 24.054688 -11.007812 C 23.375 -11.007812 22.832031 -10.804688 22.289062 -10.53125 C 21.8125 -10.328125 21.402344 -10.125 20.859375 -10.054688 C 19.773438 -9.921875 18.617188 -9.785156 17.257812 -9.785156 C 16.714844 -9.785156 16.171875 -9.851562 15.5625 -9.851562 C 14.609375 -9.921875 13.996094 -10.125 13.65625 -10.53125 C 13.316406 -10.871094 13.25 -11.414062 13.453125 -12.164062 C 13.792969 -13.523438 13.792969 -14.949219 13.386719 -16.445312 C 12.910156 -18.210938 12.09375 -19.230469 10.804688 -19.839844 C 10.191406 -20.113281 9.648438 -20.25 9.171875 -20.25 C 8.359375 -20.25 7.609375 -19.910156 6.929688 -19.296875 C 6.046875 -18.550781 5.230469 -17.734375 4.484375 -16.917969 C 1.15625 -13.453125 -0.679688 -9.378906 -1.019531 -4.757812 C -1.085938 -2.988281 -1.085938 -1.15625 0.746094 0 C 1.359375 0.476562 2.039062 0.679688 2.71875 0.679688 C 3.738281 0.679688 4.757812 0.136719 5.4375 -0.339844 C 8.289062 -2.175781 10.394531 -4.550781 11.6875 -7.40625 C 12.300781 -8.628906 12.976562 -9.171875 14.066406 -9.171875 C 14.472656 -9.171875 14.949219 -9.105469 15.492188 -8.96875 C 16.578125 -8.699219 17.667969 -8.5625 18.6875 -8.5625 C 19.910156 -8.5625 21.066406 -8.765625 22.289062 -9.105469 C 22.96875 -9.308594 25.074219 -9.988281 24.9375 -10.804688 C 24.9375 -10.804688 24.800781 -10.941406 24.394531 -11.007812 Z M 10.261719 -10.261719 C 10.261719 -10.054688 10.261719 -9.851562 10.191406 -9.648438 C 8.96875 -6.726562 7.132812 -3.058594 3.195312 -1.085938 C 2.855469 -0.882812 2.515625 -0.816406 2.175781 -0.816406 C 1.765625 -0.816406 1.425781 -0.953125 1.15625 -1.222656 C 0.816406 -1.5625 0.613281 -2.175781 0.613281 -2.921875 C 0.679688 -7.269531 2.445312 -10.667969 5.164062 -14.335938 C 5.367188 -14.675781 5.570312 -14.8125 5.84375 -14.8125 C 6.320312 -14.8125 6.726562 -14.335938 7.066406 -13.929688 C 7.269531 -13.726562 7.40625 -13.589844 7.542969 -13.453125 C 8.222656 -12.910156 8.902344 -12.230469 9.511719 -11.621094 C 9.71875 -11.414062 9.988281 -11.144531 10.328125 -10.734375 C 10.261719 -10.53125 10.261719 -10.394531 10.261719 -10.261719 Z M 10.871094 -12.976562 C 10.804688 -12.707031 10.734375 -12.433594 10.667969 -12.09375 L 10.601562 -11.753906 L 10.328125 -12.027344 C 10.054688 -12.300781 9.785156 -12.503906 9.445312 -12.773438 C 8.425781 -13.589844 7.40625 -14.40625 7.882812 -15.832031 C 8.019531 -16.238281 8.699219 -16.917969 9.378906 -16.917969 C 9.648438 -16.917969 9.921875 -16.851562 10.125 -16.648438 C 11.414062 -15.425781 11.144531 -14.203125 10.871094 -12.976562 Z M 10.871094 -12.976562 "/></g></g></g></svg>