<svg xmlns="http://www.w3.org/2000/svg" xmlns:xlink="http://www.w3.org/1999/xlink" width="500" zoomAndPan="magnify" viewBox="0 0 375 374.999991" height="500" preserveAspectRatio="xMidYMid meet" version="1.0"><defs><clipPath id="cbbed1de59"><path d="M 146.511719 132.847656 L 228.261719 132.847656 L 228.261719 242.347656 L 146.511719 242.347656 Z M 146.511719 132.847656 " clip-rule="nonzero"/></clipPath></defs><path fill="#03989e" d="M 210.242188 156.585938 C 202.363281 156.585938 196.035156 162.941406 196.035156 170.855469 C 196.035156 178.765625 202.363281 185.125 210.242188 185.125 C 218.117188 185.125 224.445312 178.765625 224.445312 170.855469 C 224.445312 162.941406 218.117188 156.585938 210.242188 156.585938 Z M 210.242188 156.585938 " fill-opacity="1" fill-rule="evenodd"/><g clip-path="url(#cbbed1de59)"><path fill="#07da98" d="M 146.667969 132.847656 L 173.53125 132.847656 L 173.53125 199.394531 L 203.347656 199.394531 L 228.105469 242.347656 L 198.144531 242.347656 L 173.53125 199.394531 L 173.53125 242.347656 L 146.667969 242.347656 Z M 146.667969 132.847656 " fill-opacity="1" fill-rule="evenodd"/></g></svg>