<svg width="581" height="336" viewBox="0 0 581 336" fill="none" xmlns="http://www.w3.org/2000/svg">
<g filter="url(#filter0_d_0_1)">
<line x1="4" y1="304.5" x2="577" y2="304.5" stroke="#330551"/>
</g>
<rect x="16" y="227" width="95" height="78" fill="#7852E1"/>
<rect x="165" y="188" width="95" height="117" fill="#7852E1"/>
<rect x="314" y="132" width="95" height="173" fill="#7852E1"/>
<rect x="464" y="28" width="95" height="277" fill="#7852E1"/>
<path d="M47.725 333.125C47.9917 333.125 48.2167 333.217 48.4 333.4C48.5833 333.583 48.675 333.808 48.675 334.075C48.675 334.342 48.5833 334.567 48.4 334.75C48.2167 334.917 47.9917 335 47.725 335H38.65C38.35 335 38.1 334.917 37.9 334.75C37.7167 334.567 37.625 334.325 37.625 334.025C37.625 333.758 37.725 333.517 37.925 333.3L43.575 327.125C44.4083 326.225 45.0333 325.383 45.45 324.6C45.8833 323.8 46.1 323.092 46.1 322.475C46.1 321.458 45.7917 320.65 45.175 320.05C44.575 319.433 43.7667 319.125 42.75 319.125C42.3 319.125 41.85 319.225 41.4 319.425C40.95 319.608 40.5417 319.867 40.175 320.2C39.8083 320.517 39.5083 320.875 39.275 321.275C39.1417 321.492 39 321.633 38.85 321.7C38.7167 321.75 38.575 321.775 38.425 321.775C38.175 321.775 37.95 321.692 37.75 321.525C37.55 321.342 37.45 321.133 37.45 320.9C37.45 320.717 37.5 320.55 37.6 320.4C37.7 320.233 37.8333 320.05 38 319.85C38.35 319.367 38.7833 318.933 39.3 318.55C39.8333 318.15 40.4083 317.833 41.025 317.6C41.6583 317.367 42.275 317.25 42.875 317.25C43.9417 317.25 44.8667 317.458 45.65 317.875C46.45 318.292 47.0667 318.883 47.5 319.65C47.9333 320.417 48.15 321.317 48.15 322.35C48.15 323.233 47.8833 324.208 47.35 325.275C46.8167 326.342 46.0333 327.425 45 328.525L40.625 333.375L40.375 333.125H47.725ZM57.4898 335.25C56.1065 335.25 54.9482 334.858 54.0148 334.075C53.0982 333.292 52.3982 332.217 51.9148 330.85C51.4482 329.483 51.2148 327.95 51.2148 326.25C51.2148 324.517 51.4482 322.975 51.9148 321.625C52.3982 320.275 53.0982 319.208 54.0148 318.425C54.9482 317.642 56.1065 317.25 57.4898 317.25C58.8732 317.25 60.0232 317.642 60.9398 318.425C61.8732 319.208 62.5732 320.275 63.0398 321.625C63.5065 322.975 63.7398 324.517 63.7398 326.25C63.7398 327.95 63.5065 329.483 63.0398 330.85C62.5732 332.217 61.8732 333.292 60.9398 334.075C60.0232 334.858 58.8732 335.25 57.4898 335.25ZM57.4898 333.225C58.3732 333.225 59.1148 332.942 59.7148 332.375C60.3315 331.808 60.7982 331.008 61.1148 329.975C61.4315 328.925 61.5898 327.683 61.5898 326.25C61.5898 324.8 61.4315 323.558 61.1148 322.525C60.7982 321.475 60.3315 320.675 59.7148 320.125C59.1148 319.558 58.3732 319.275 57.4898 319.275C56.6065 319.275 55.8565 319.558 55.2398 320.125C54.6398 320.675 54.1732 321.475 53.8398 322.525C53.5232 323.558 53.3648 324.8 53.3648 326.25C53.3648 327.683 53.5232 328.925 53.8398 329.975C54.1732 331.008 54.6398 331.808 55.2398 332.375C55.8565 332.942 56.6065 333.225 57.4898 333.225ZM68.3594 335.075C68.0927 335.075 67.851 334.992 67.6344 334.825C67.4344 334.642 67.3344 334.408 67.3344 334.125C67.3344 333.975 67.3677 333.825 67.4344 333.675L73.8844 319.05L74.1844 319.5H66.1344C65.8677 319.5 65.6427 319.417 65.4594 319.25C65.276 319.067 65.1844 318.833 65.1844 318.55C65.1844 318.283 65.276 318.067 65.4594 317.9C65.6427 317.717 65.8677 317.625 66.1344 317.625H75.1594C75.4594 317.625 75.701 317.717 75.8844 317.9C76.0844 318.083 76.1844 318.317 76.1844 318.6C76.1844 318.75 76.151 318.9 76.0844 319.05L69.3094 334.45C69.226 334.65 69.0927 334.808 68.9094 334.925C68.7427 335.025 68.5594 335.075 68.3594 335.075ZM82.7941 335.1C82.1275 335.1 81.4441 335 80.7441 334.8C80.0608 334.583 79.4608 334.267 78.9441 333.85C78.8108 333.733 78.7025 333.583 78.6191 333.4C78.5358 333.217 78.4941 333.042 78.4941 332.875C78.4941 332.675 78.5775 332.483 78.7441 332.3C78.9275 332.1 79.1608 332 79.4441 332C79.6608 332 79.9108 332.108 80.1941 332.325C80.5608 332.608 80.9691 332.833 81.4191 333C81.8691 333.167 82.3191 333.25 82.7691 333.25C83.7025 333.25 84.5108 333.075 85.1941 332.725C85.8775 332.375 86.4025 331.883 86.7691 331.25C87.1358 330.617 87.3191 329.875 87.3191 329.025C87.3191 328.258 87.1441 327.592 86.7941 327.025C86.4608 326.442 85.9858 325.992 85.3691 325.675C84.7691 325.358 84.0775 325.2 83.2941 325.2C82.7108 325.2 82.1858 325.292 81.7191 325.475C81.2691 325.642 80.8691 325.817 80.5191 326C80.1858 326.183 79.8941 326.275 79.6441 326.275C79.3275 326.275 79.0858 326.208 78.9191 326.075C78.7525 325.925 78.6441 325.742 78.5941 325.525C78.5441 325.308 78.5275 325.108 78.5441 324.925L79.5191 318.45C79.5691 318.233 79.6858 318.042 79.8691 317.875C80.0525 317.708 80.2775 317.625 80.5441 317.625H87.9691C88.2358 317.625 88.4608 317.717 88.6441 317.9C88.8275 318.083 88.9191 318.317 88.9191 318.6C88.9191 318.867 88.8275 319.092 88.6441 319.275C88.4608 319.442 88.2358 319.525 87.9691 319.525H81.0441L81.2941 319.3L80.3691 324.95L79.9691 324.425C80.1525 324.258 80.4275 324.092 80.7941 323.925C81.1775 323.758 81.6108 323.617 82.0941 323.5C82.5941 323.383 83.1025 323.325 83.6191 323.325C84.7025 323.325 85.6691 323.575 86.5191 324.075C87.3858 324.558 88.0691 325.225 88.5691 326.075C89.0691 326.925 89.3191 327.9 89.3191 329C89.3191 330.217 89.0525 331.283 88.5191 332.2C87.9858 333.117 87.2275 333.833 86.2441 334.35C85.2775 334.85 84.1275 335.1 82.7941 335.1Z" fill="#7852E1"/>
<path d="M196.725 333.125C196.992 333.125 197.217 333.217 197.4 333.4C197.583 333.583 197.675 333.808 197.675 334.075C197.675 334.342 197.583 334.567 197.4 334.75C197.217 334.917 196.992 335 196.725 335H187.65C187.35 335 187.1 334.917 186.9 334.75C186.717 334.567 186.625 334.325 186.625 334.025C186.625 333.758 186.725 333.517 186.925 333.3L192.575 327.125C193.408 326.225 194.033 325.383 194.45 324.6C194.883 323.8 195.1 323.092 195.1 322.475C195.1 321.458 194.792 320.65 194.175 320.05C193.575 319.433 192.767 319.125 191.75 319.125C191.3 319.125 190.85 319.225 190.4 319.425C189.95 319.608 189.542 319.867 189.175 320.2C188.808 320.517 188.508 320.875 188.275 321.275C188.142 321.492 188 321.633 187.85 321.7C187.717 321.75 187.575 321.775 187.425 321.775C187.175 321.775 186.95 321.692 186.75 321.525C186.55 321.342 186.45 321.133 186.45 320.9C186.45 320.717 186.5 320.55 186.6 320.4C186.7 320.233 186.833 320.05 187 319.85C187.35 319.367 187.783 318.933 188.3 318.55C188.833 318.15 189.408 317.833 190.025 317.6C190.658 317.367 191.275 317.25 191.875 317.25C192.942 317.25 193.867 317.458 194.65 317.875C195.45 318.292 196.067 318.883 196.5 319.65C196.933 320.417 197.15 321.317 197.15 322.35C197.15 323.233 196.883 324.208 196.35 325.275C195.817 326.342 195.033 327.425 194 328.525L189.625 333.375L189.375 333.125H196.725ZM206.49 335.25C205.107 335.25 203.948 334.858 203.015 334.075C202.098 333.292 201.398 332.217 200.915 330.85C200.448 329.483 200.215 327.95 200.215 326.25C200.215 324.517 200.448 322.975 200.915 321.625C201.398 320.275 202.098 319.208 203.015 318.425C203.948 317.642 205.107 317.25 206.49 317.25C207.873 317.25 209.023 317.642 209.94 318.425C210.873 319.208 211.573 320.275 212.04 321.625C212.507 322.975 212.74 324.517 212.74 326.25C212.74 327.95 212.507 329.483 212.04 330.85C211.573 332.217 210.873 333.292 209.94 334.075C209.023 334.858 207.873 335.25 206.49 335.25ZM206.49 333.225C207.373 333.225 208.115 332.942 208.715 332.375C209.332 331.808 209.798 331.008 210.115 329.975C210.432 328.925 210.59 327.683 210.59 326.25C210.59 324.8 210.432 323.558 210.115 322.525C209.798 321.475 209.332 320.675 208.715 320.125C208.115 319.558 207.373 319.275 206.49 319.275C205.607 319.275 204.857 319.558 204.24 320.125C203.64 320.675 203.173 321.475 202.84 322.525C202.523 323.558 202.365 324.8 202.365 326.25C202.365 327.683 202.523 328.925 202.84 329.975C203.173 331.008 203.64 331.808 204.24 332.375C204.857 332.942 205.607 333.225 206.49 333.225ZM217.359 335.075C217.093 335.075 216.851 334.992 216.634 334.825C216.434 334.642 216.334 334.408 216.334 334.125C216.334 333.975 216.368 333.825 216.434 333.675L222.884 319.05L223.184 319.5H215.134C214.868 319.5 214.643 319.417 214.459 319.25C214.276 319.067 214.184 318.833 214.184 318.55C214.184 318.283 214.276 318.067 214.459 317.9C214.643 317.717 214.868 317.625 215.134 317.625H224.159C224.459 317.625 224.701 317.717 224.884 317.9C225.084 318.083 225.184 318.317 225.184 318.6C225.184 318.75 225.151 318.9 225.084 319.05L218.309 334.45C218.226 334.65 218.093 334.808 217.909 334.925C217.743 335.025 217.559 335.075 217.359 335.075ZM232.287 335.25C231.337 335.25 230.496 335.075 229.762 334.725C229.046 334.358 228.446 333.867 227.962 333.25C227.479 332.633 227.112 331.942 226.862 331.175C226.612 330.408 226.487 329.617 226.487 328.8C226.487 328.083 226.579 327.283 226.762 326.4C226.946 325.517 227.221 324.617 227.587 323.7C227.971 322.767 228.462 321.875 229.062 321.025C229.662 320.175 230.379 319.417 231.212 318.75C232.046 318.067 233.004 317.542 234.087 317.175C234.237 317.142 234.371 317.125 234.487 317.125C234.754 317.125 234.987 317.2 235.187 317.35C235.404 317.483 235.512 317.733 235.512 318.1C235.512 318.333 235.437 318.542 235.287 318.725C235.137 318.892 234.937 319.017 234.687 319.1C234.021 319.35 233.362 319.717 232.712 320.2C232.079 320.667 231.487 321.225 230.937 321.875C230.404 322.508 229.937 323.2 229.537 323.95C229.154 324.683 228.887 325.45 228.737 326.25L228.137 326.45C228.421 326 228.779 325.575 229.212 325.175C229.646 324.775 230.146 324.45 230.712 324.2C231.296 323.95 231.929 323.825 232.612 323.825C233.346 323.825 234.029 323.983 234.662 324.3C235.296 324.617 235.854 325.042 236.337 325.575C236.821 326.108 237.196 326.725 237.462 327.425C237.746 328.108 237.887 328.825 237.887 329.575C237.887 330.592 237.637 331.533 237.137 332.4C236.654 333.25 235.987 333.942 235.137 334.475C234.304 334.992 233.354 335.25 232.287 335.25ZM232.262 333.375C232.946 333.375 233.554 333.217 234.087 332.9C234.637 332.567 235.071 332.117 235.387 331.55C235.704 330.967 235.862 330.308 235.862 329.575C235.862 328.892 235.721 328.258 235.437 327.675C235.154 327.092 234.746 326.625 234.212 326.275C233.696 325.908 233.071 325.725 232.337 325.725C231.554 325.725 230.879 325.9 230.312 326.25C229.746 326.6 229.304 327.075 228.987 327.675C228.687 328.258 228.537 328.908 228.537 329.625C228.537 330.292 228.687 330.908 228.987 331.475C229.287 332.042 229.712 332.5 230.262 332.85C230.829 333.2 231.496 333.375 232.262 333.375Z" fill="#7852E1"/>
<path d="M346.725 333.125C346.992 333.125 347.217 333.217 347.4 333.4C347.583 333.583 347.675 333.808 347.675 334.075C347.675 334.342 347.583 334.567 347.4 334.75C347.217 334.917 346.992 335 346.725 335H337.65C337.35 335 337.1 334.917 336.9 334.75C336.717 334.567 336.625 334.325 336.625 334.025C336.625 333.758 336.725 333.517 336.925 333.3L342.575 327.125C343.408 326.225 344.033 325.383 344.45 324.6C344.883 323.8 345.1 323.092 345.1 322.475C345.1 321.458 344.792 320.65 344.175 320.05C343.575 319.433 342.767 319.125 341.75 319.125C341.3 319.125 340.85 319.225 340.4 319.425C339.95 319.608 339.542 319.867 339.175 320.2C338.808 320.517 338.508 320.875 338.275 321.275C338.142 321.492 338 321.633 337.85 321.7C337.717 321.75 337.575 321.775 337.425 321.775C337.175 321.775 336.95 321.692 336.75 321.525C336.55 321.342 336.45 321.133 336.45 320.9C336.45 320.717 336.5 320.55 336.6 320.4C336.7 320.233 336.833 320.05 337 319.85C337.35 319.367 337.783 318.933 338.3 318.55C338.833 318.15 339.408 317.833 340.025 317.6C340.658 317.367 341.275 317.25 341.875 317.25C342.942 317.25 343.867 317.458 344.65 317.875C345.45 318.292 346.067 318.883 346.5 319.65C346.933 320.417 347.15 321.317 347.15 322.35C347.15 323.233 346.883 324.208 346.35 325.275C345.817 326.342 345.033 327.425 344 328.525L339.625 333.375L339.375 333.125H346.725ZM356.49 335.25C355.107 335.25 353.948 334.858 353.015 334.075C352.098 333.292 351.398 332.217 350.915 330.85C350.448 329.483 350.215 327.95 350.215 326.25C350.215 324.517 350.448 322.975 350.915 321.625C351.398 320.275 352.098 319.208 353.015 318.425C353.948 317.642 355.107 317.25 356.49 317.25C357.873 317.25 359.023 317.642 359.94 318.425C360.873 319.208 361.573 320.275 362.04 321.625C362.507 322.975 362.74 324.517 362.74 326.25C362.74 327.95 362.507 329.483 362.04 330.85C361.573 332.217 360.873 333.292 359.94 334.075C359.023 334.858 357.873 335.25 356.49 335.25ZM356.49 333.225C357.373 333.225 358.115 332.942 358.715 332.375C359.332 331.808 359.798 331.008 360.115 329.975C360.432 328.925 360.59 327.683 360.59 326.25C360.59 324.8 360.432 323.558 360.115 322.525C359.798 321.475 359.332 320.675 358.715 320.125C358.115 319.558 357.373 319.275 356.49 319.275C355.607 319.275 354.857 319.558 354.24 320.125C353.64 320.675 353.173 321.475 352.84 322.525C352.523 323.558 352.365 324.8 352.365 326.25C352.365 327.683 352.523 328.925 352.84 329.975C353.173 331.008 353.64 331.808 354.24 332.375C354.857 332.942 355.607 333.225 356.49 333.225ZM367.359 335.075C367.093 335.075 366.851 334.992 366.634 334.825C366.434 334.642 366.334 334.408 366.334 334.125C366.334 333.975 366.368 333.825 366.434 333.675L372.884 319.05L373.184 319.5H365.134C364.868 319.5 364.643 319.417 364.459 319.25C364.276 319.067 364.184 318.833 364.184 318.55C364.184 318.283 364.276 318.067 364.459 317.9C364.643 317.717 364.868 317.625 365.134 317.625H374.159C374.459 317.625 374.701 317.717 374.884 317.9C375.084 318.083 375.184 318.317 375.184 318.6C375.184 318.75 375.151 318.9 375.084 319.05L368.309 334.45C368.226 334.65 368.093 334.808 367.909 334.925C367.743 335.025 367.559 335.075 367.359 335.075ZM380.494 335.075C380.227 335.075 379.986 334.992 379.769 334.825C379.569 334.642 379.469 334.408 379.469 334.125C379.469 333.975 379.502 333.825 379.569 333.675L386.019 319.05L386.319 319.5H378.269C378.002 319.5 377.777 319.417 377.594 319.25C377.411 319.067 377.319 318.833 377.319 318.55C377.319 318.283 377.411 318.067 377.594 317.9C377.777 317.717 378.002 317.625 378.269 317.625H387.294C387.594 317.625 387.836 317.717 388.019 317.9C388.219 318.083 388.319 318.317 388.319 318.6C388.319 318.75 388.286 318.9 388.219 319.05L381.444 334.45C381.361 334.65 381.227 334.808 381.044 334.925C380.877 335.025 380.694 335.075 380.494 335.075Z" fill="#7852E1"/>
<path d="M497.725 333.125C497.992 333.125 498.217 333.217 498.4 333.4C498.583 333.583 498.675 333.808 498.675 334.075C498.675 334.342 498.583 334.567 498.4 334.75C498.217 334.917 497.992 335 497.725 335H488.65C488.35 335 488.1 334.917 487.9 334.75C487.717 334.567 487.625 334.325 487.625 334.025C487.625 333.758 487.725 333.517 487.925 333.3L493.575 327.125C494.408 326.225 495.033 325.383 495.45 324.6C495.883 323.8 496.1 323.092 496.1 322.475C496.1 321.458 495.792 320.65 495.175 320.05C494.575 319.433 493.767 319.125 492.75 319.125C492.3 319.125 491.85 319.225 491.4 319.425C490.95 319.608 490.542 319.867 490.175 320.2C489.808 320.517 489.508 320.875 489.275 321.275C489.142 321.492 489 321.633 488.85 321.7C488.717 321.75 488.575 321.775 488.425 321.775C488.175 321.775 487.95 321.692 487.75 321.525C487.55 321.342 487.45 321.133 487.45 320.9C487.45 320.717 487.5 320.55 487.6 320.4C487.7 320.233 487.833 320.05 488 319.85C488.35 319.367 488.783 318.933 489.3 318.55C489.833 318.15 490.408 317.833 491.025 317.6C491.658 317.367 492.275 317.25 492.875 317.25C493.942 317.25 494.867 317.458 495.65 317.875C496.45 318.292 497.067 318.883 497.5 319.65C497.933 320.417 498.15 321.317 498.15 322.35C498.15 323.233 497.883 324.208 497.35 325.275C496.817 326.342 496.033 327.425 495 328.525L490.625 333.375L490.375 333.125H497.725ZM507.49 335.25C506.107 335.25 504.948 334.858 504.015 334.075C503.098 333.292 502.398 332.217 501.915 330.85C501.448 329.483 501.215 327.95 501.215 326.25C501.215 324.517 501.448 322.975 501.915 321.625C502.398 320.275 503.098 319.208 504.015 318.425C504.948 317.642 506.107 317.25 507.49 317.25C508.873 317.25 510.023 317.642 510.94 318.425C511.873 319.208 512.573 320.275 513.04 321.625C513.507 322.975 513.74 324.517 513.74 326.25C513.74 327.95 513.507 329.483 513.04 330.85C512.573 332.217 511.873 333.292 510.94 334.075C510.023 334.858 508.873 335.25 507.49 335.25ZM507.49 333.225C508.373 333.225 509.115 332.942 509.715 332.375C510.332 331.808 510.798 331.008 511.115 329.975C511.432 328.925 511.59 327.683 511.59 326.25C511.59 324.8 511.432 323.558 511.115 322.525C510.798 321.475 510.332 320.675 509.715 320.125C509.115 319.558 508.373 319.275 507.49 319.275C506.607 319.275 505.857 319.558 505.24 320.125C504.64 320.675 504.173 321.475 503.84 322.525C503.523 323.558 503.365 324.8 503.365 326.25C503.365 327.683 503.523 328.925 503.84 329.975C504.173 331.008 504.64 331.808 505.24 332.375C505.857 332.942 506.607 333.225 507.49 333.225ZM518.359 335.075C518.093 335.075 517.851 334.992 517.634 334.825C517.434 334.642 517.334 334.408 517.334 334.125C517.334 333.975 517.368 333.825 517.434 333.675L523.884 319.05L524.184 319.5H516.134C515.868 319.5 515.643 319.417 515.459 319.25C515.276 319.067 515.184 318.833 515.184 318.55C515.184 318.283 515.276 318.067 515.459 317.9C515.643 317.717 515.868 317.625 516.134 317.625H525.159C525.459 317.625 525.701 317.717 525.884 317.9C526.084 318.083 526.184 318.317 526.184 318.6C526.184 318.75 526.151 318.9 526.084 319.05L519.309 334.45C519.226 334.65 519.093 334.808 518.909 334.925C518.743 335.025 518.559 335.075 518.359 335.075ZM536.144 326.175L536.094 325.825C536.677 326.075 537.202 326.417 537.669 326.85C538.136 327.283 538.502 327.783 538.769 328.35C539.052 328.9 539.194 329.5 539.194 330.15C539.194 331.05 538.944 331.883 538.444 332.65C537.961 333.4 537.294 334 536.444 334.45C535.611 334.9 534.677 335.125 533.644 335.125C532.611 335.125 531.677 334.9 530.844 334.45C530.011 334 529.344 333.4 528.844 332.65C528.361 331.883 528.119 331.05 528.119 330.15C528.119 329.4 528.269 328.742 528.569 328.175C528.886 327.608 529.277 327.125 529.744 326.725C530.227 326.325 530.727 326.008 531.244 325.775L531.119 326.175C530.686 325.992 530.269 325.725 529.869 325.375C529.486 325.008 529.169 324.575 528.919 324.075C528.669 323.558 528.544 322.975 528.544 322.325C528.544 321.425 528.769 320.608 529.219 319.875C529.669 319.142 530.286 318.567 531.069 318.15C531.852 317.717 532.711 317.5 533.644 317.5C534.594 317.5 535.452 317.717 536.219 318.15C536.986 318.567 537.594 319.142 538.044 319.875C538.511 320.608 538.744 321.425 538.744 322.325C538.744 323.008 538.611 323.608 538.344 324.125C538.077 324.625 537.744 325.05 537.344 325.4C536.961 325.733 536.561 325.992 536.144 326.175ZM530.569 322.35C530.569 322.95 530.702 323.475 530.969 323.925C531.252 324.375 531.627 324.733 532.094 325C532.577 325.25 533.094 325.375 533.644 325.375C534.211 325.375 534.719 325.25 535.169 325C535.636 324.733 536.011 324.375 536.294 323.925C536.577 323.475 536.719 322.95 536.719 322.35C536.719 321.483 536.427 320.775 535.844 320.225C535.277 319.658 534.544 319.375 533.644 319.375C532.744 319.375 532.002 319.658 531.419 320.225C530.852 320.775 530.569 321.483 530.569 322.35ZM533.644 333.25C534.677 333.25 535.519 332.95 536.169 332.35C536.836 331.75 537.169 331.008 537.169 330.125C537.169 329.508 537.011 328.967 536.694 328.5C536.377 328.017 535.952 327.642 535.419 327.375C534.886 327.092 534.294 326.95 533.644 326.95C533.011 326.95 532.427 327.092 531.894 327.375C531.361 327.642 530.936 328.017 530.619 328.5C530.302 328.967 530.144 329.508 530.144 330.125C530.144 331.008 530.469 331.75 531.119 332.35C531.786 332.95 532.627 333.25 533.644 333.25Z" fill="#7852E1"/>
<path d="M37.425 210.1C37.525 210.1 37.6333 210.125 37.75 210.175C37.8833 210.208 38.025 210.292 38.175 210.425C38.5083 210.725 38.9 210.967 39.35 211.15C39.8 211.333 40.3167 211.425 40.9 211.425C41.6167 211.425 42.275 211.267 42.875 210.95C43.475 210.617 43.9583 210.15 44.325 209.55C44.7083 208.95 44.9 208.258 44.9 207.475C44.9 206.625 44.7083 205.933 44.325 205.4C43.9583 204.85 43.4833 204.45 42.9 204.2C42.3333 203.933 41.7333 203.8 41.1 203.8C40.8667 203.8 40.65 203.817 40.45 203.85C40.25 203.883 40.0583 203.925 39.875 203.975C39.7083 204.025 39.55 204.05 39.4 204.05C39.1333 204.05 38.925 203.958 38.775 203.775C38.625 203.592 38.55 203.367 38.55 203.1C38.55 202.95 38.575 202.817 38.625 202.7C38.6917 202.567 38.7917 202.425 38.925 202.275L43.775 197.025L44.175 197.5H37.075C36.8083 197.5 36.5833 197.408 36.4 197.225C36.2167 197.042 36.125 196.817 36.125 196.55C36.125 196.283 36.2167 196.067 36.4 195.9C36.5833 195.717 36.8083 195.625 37.075 195.625H45.225C45.5917 195.625 45.8583 195.733 46.025 195.95C46.1917 196.15 46.275 196.375 46.275 196.625C46.275 196.775 46.2333 196.917 46.15 197.05C46.0833 197.183 45.9917 197.308 45.875 197.425L41.025 202.7L40.45 202.2C40.5333 202.133 40.725 202.075 41.025 202.025C41.325 201.958 41.575 201.925 41.775 201.925C42.7083 201.925 43.5667 202.15 44.35 202.6C45.1333 203.05 45.7583 203.683 46.225 204.5C46.6917 205.317 46.925 206.267 46.925 207.35C46.925 208.55 46.65 209.592 46.1 210.475C45.55 211.358 44.7917 212.042 43.825 212.525C42.875 213.008 41.8 213.25 40.6 213.25C39.9333 213.25 39.275 213.15 38.625 212.95C37.9917 212.733 37.4417 212.425 36.975 212.025C36.7583 211.908 36.6083 211.775 36.525 211.625C36.4583 211.475 36.425 211.325 36.425 211.175C36.425 210.925 36.5167 210.683 36.7 210.45C36.9 210.217 37.1417 210.1 37.425 210.1ZM55.733 213.25C54.3497 213.25 53.1913 212.858 52.258 212.075C51.3413 211.292 50.6413 210.217 50.158 208.85C49.6913 207.483 49.458 205.95 49.458 204.25C49.458 202.517 49.6913 200.975 50.158 199.625C50.6413 198.275 51.3413 197.208 52.258 196.425C53.1913 195.642 54.3497 195.25 55.733 195.25C57.1163 195.25 58.2663 195.642 59.183 196.425C60.1163 197.208 60.8163 198.275 61.283 199.625C61.7497 200.975 61.983 202.517 61.983 204.25C61.983 205.95 61.7497 207.483 61.283 208.85C60.8163 210.217 60.1163 211.292 59.183 212.075C58.2663 212.858 57.1163 213.25 55.733 213.25ZM55.733 211.225C56.6163 211.225 57.358 210.942 57.958 210.375C58.5747 209.808 59.0413 209.008 59.358 207.975C59.6747 206.925 59.833 205.683 59.833 204.25C59.833 202.8 59.6747 201.558 59.358 200.525C59.0413 199.475 58.5747 198.675 57.958 198.125C57.358 197.558 56.6163 197.275 55.733 197.275C54.8497 197.275 54.0997 197.558 53.483 198.125C52.883 198.675 52.4163 199.475 52.083 200.525C51.7663 201.558 51.608 202.8 51.608 204.25C51.608 205.683 51.7663 206.925 52.083 207.975C52.4163 209.008 52.883 209.808 53.483 210.375C54.0997 210.942 54.8497 211.225 55.733 211.225ZM67.8727 204.625C67.106 204.625 66.4477 204.417 65.8977 204C65.3643 203.567 64.9477 203 64.6477 202.3C64.3643 201.583 64.2227 200.808 64.2227 199.975C64.2227 199.125 64.3643 198.342 64.6477 197.625C64.9477 196.908 65.3727 196.342 65.9227 195.925C66.4727 195.492 67.131 195.275 67.8977 195.275C68.6643 195.275 69.3143 195.492 69.8477 195.925C70.3977 196.342 70.8143 196.908 71.0977 197.625C71.381 198.325 71.5227 199.1 71.5227 199.95C71.5227 200.8 71.3727 201.583 71.0727 202.3C70.7727 203 70.3477 203.567 69.7977 204C69.2643 204.417 68.6227 204.625 67.8727 204.625ZM67.8977 203C68.531 203 68.9977 202.717 69.2977 202.15C69.5977 201.567 69.7477 200.842 69.7477 199.975C69.7477 199.092 69.5893 198.358 69.2727 197.775C68.956 197.192 68.4893 196.9 67.8727 196.9C67.2393 196.9 66.7643 197.2 66.4477 197.8C66.1477 198.383 65.9977 199.1 65.9977 199.95C65.9977 200.833 66.156 201.567 66.4727 202.15C66.806 202.717 67.281 203 67.8977 203ZM78.2977 213.225C77.5477 213.225 76.8977 213.017 76.3477 212.6C75.8143 212.167 75.3977 211.6 75.0977 210.9C74.7977 210.183 74.6477 209.408 74.6477 208.575C74.6477 207.725 74.7893 206.942 75.0727 206.225C75.3727 205.508 75.7977 204.942 76.3477 204.525C76.8977 204.092 77.556 203.875 78.3227 203.875C79.106 203.875 79.7643 204.092 80.2977 204.525C80.8477 204.942 81.2643 205.508 81.5477 206.225C81.831 206.925 81.9727 207.7 81.9727 208.55C81.9727 209.4 81.8227 210.183 81.5227 210.9C81.2227 211.6 80.7977 212.167 80.2477 212.6C79.7143 213.017 79.0643 213.225 78.2977 213.225ZM78.3227 211.6C78.9727 211.6 79.4477 211.317 79.7477 210.75C80.0477 210.167 80.1977 209.442 80.1977 208.575C80.1977 207.692 80.0393 206.958 79.7227 206.375C79.406 205.792 78.931 205.5 78.2977 205.5C77.6643 205.5 77.1893 205.8 76.8727 206.4C76.5727 206.983 76.4227 207.7 76.4227 208.55C76.4227 209.433 76.581 210.167 76.8977 210.75C77.231 211.317 77.706 211.6 78.3227 211.6ZM67.7727 213.05C67.5727 213.05 67.3727 212.975 67.1727 212.825C66.9727 212.675 66.8727 212.467 66.8727 212.2C66.8727 212.05 66.931 211.875 67.0477 211.675L77.4977 195.85C77.6977 195.567 77.931 195.425 78.1977 195.425C78.4143 195.425 78.6143 195.5 78.7977 195.65C78.9977 195.8 79.0977 196.008 79.0977 196.275C79.0977 196.442 79.0477 196.617 78.9477 196.8L68.4977 212.65C68.2977 212.917 68.056 213.05 67.7727 213.05Z" fill="#7852E1"/>
<path d="M194.375 177C194.092 177 193.85 176.9 193.65 176.7C193.467 176.5 193.375 176.258 193.375 175.975V162.3L193.775 162.45L187.8 170.25L187.7 169.95H197.05C197.317 169.95 197.542 170.042 197.725 170.225C197.908 170.408 198 170.633 198 170.9C198 171.15 197.908 171.367 197.725 171.55C197.542 171.717 197.317 171.8 197.05 171.8H186.325C186.075 171.8 185.842 171.7 185.625 171.5C185.425 171.3 185.325 171.067 185.325 170.8C185.325 170.55 185.408 170.333 185.575 170.15L193.55 159.9C193.667 159.75 193.8 159.65 193.95 159.6C194.1 159.533 194.25 159.5 194.4 159.5C194.683 159.5 194.917 159.6 195.1 159.8C195.283 159.983 195.375 160.217 195.375 160.5V175.975C195.375 176.258 195.275 176.5 195.075 176.7C194.892 176.9 194.658 177 194.375 177ZM204.719 177.1C204.052 177.1 203.369 177 202.669 176.8C201.986 176.583 201.386 176.267 200.869 175.85C200.736 175.733 200.627 175.583 200.544 175.4C200.461 175.217 200.419 175.042 200.419 174.875C200.419 174.675 200.502 174.483 200.669 174.3C200.852 174.1 201.086 174 201.369 174C201.586 174 201.836 174.108 202.119 174.325C202.486 174.608 202.894 174.833 203.344 175C203.794 175.167 204.244 175.25 204.694 175.25C205.627 175.25 206.436 175.075 207.119 174.725C207.802 174.375 208.327 173.883 208.694 173.25C209.061 172.617 209.244 171.875 209.244 171.025C209.244 170.258 209.069 169.592 208.719 169.025C208.386 168.442 207.911 167.992 207.294 167.675C206.694 167.358 206.002 167.2 205.219 167.2C204.636 167.2 204.111 167.292 203.644 167.475C203.194 167.642 202.794 167.817 202.444 168C202.111 168.183 201.819 168.275 201.569 168.275C201.252 168.275 201.011 168.208 200.844 168.075C200.677 167.925 200.569 167.742 200.519 167.525C200.469 167.308 200.452 167.108 200.469 166.925L201.444 160.45C201.494 160.233 201.611 160.042 201.794 159.875C201.977 159.708 202.202 159.625 202.469 159.625H209.894C210.161 159.625 210.386 159.717 210.569 159.9C210.752 160.083 210.844 160.317 210.844 160.6C210.844 160.867 210.752 161.092 210.569 161.275C210.386 161.442 210.161 161.525 209.894 161.525H202.969L203.219 161.3L202.294 166.95L201.894 166.425C202.077 166.258 202.352 166.092 202.719 165.925C203.102 165.758 203.536 165.617 204.019 165.5C204.519 165.383 205.027 165.325 205.544 165.325C206.627 165.325 207.594 165.575 208.444 166.075C209.311 166.558 209.994 167.225 210.494 168.075C210.994 168.925 211.244 169.9 211.244 171C211.244 172.217 210.977 173.283 210.444 174.2C209.911 175.117 209.152 175.833 208.169 176.35C207.202 176.85 206.052 177.1 204.719 177.1ZM217.336 168.625C216.569 168.625 215.911 168.417 215.361 168C214.827 167.567 214.411 167 214.111 166.3C213.827 165.583 213.686 164.808 213.686 163.975C213.686 163.125 213.827 162.342 214.111 161.625C214.411 160.908 214.836 160.342 215.386 159.925C215.936 159.492 216.594 159.275 217.361 159.275C218.127 159.275 218.777 159.492 219.311 159.925C219.861 160.342 220.277 160.908 220.561 161.625C220.844 162.325 220.986 163.1 220.986 163.95C220.986 164.8 220.836 165.583 220.536 166.3C220.236 167 219.811 167.567 219.261 168C218.727 168.417 218.086 168.625 217.336 168.625ZM217.361 167C217.994 167 218.461 166.717 218.761 166.15C219.061 165.567 219.211 164.842 219.211 163.975C219.211 163.092 219.052 162.358 218.736 161.775C218.419 161.192 217.952 160.9 217.336 160.9C216.702 160.9 216.227 161.2 215.911 161.8C215.611 162.383 215.461 163.1 215.461 163.95C215.461 164.833 215.619 165.567 215.936 166.15C216.269 166.717 216.744 167 217.361 167ZM227.761 177.225C227.011 177.225 226.361 177.017 225.811 176.6C225.277 176.167 224.861 175.6 224.561 174.9C224.261 174.183 224.111 173.408 224.111 172.575C224.111 171.725 224.252 170.942 224.536 170.225C224.836 169.508 225.261 168.942 225.811 168.525C226.361 168.092 227.019 167.875 227.786 167.875C228.569 167.875 229.227 168.092 229.761 168.525C230.311 168.942 230.727 169.508 231.011 170.225C231.294 170.925 231.436 171.7 231.436 172.55C231.436 173.4 231.286 174.183 230.986 174.9C230.686 175.6 230.261 176.167 229.711 176.6C229.177 177.017 228.527 177.225 227.761 177.225ZM227.786 175.6C228.436 175.6 228.911 175.317 229.211 174.75C229.511 174.167 229.661 173.442 229.661 172.575C229.661 171.692 229.502 170.958 229.186 170.375C228.869 169.792 228.394 169.5 227.761 169.5C227.127 169.5 226.652 169.8 226.336 170.4C226.036 170.983 225.886 171.7 225.886 172.55C225.886 173.433 226.044 174.167 226.361 174.75C226.694 175.317 227.169 175.6 227.786 175.6ZM217.236 177.05C217.036 177.05 216.836 176.975 216.636 176.825C216.436 176.675 216.336 176.467 216.336 176.2C216.336 176.05 216.394 175.875 216.511 175.675L226.961 159.85C227.161 159.567 227.394 159.425 227.661 159.425C227.877 159.425 228.077 159.5 228.261 159.65C228.461 159.8 228.561 160.008 228.561 160.275C228.561 160.442 228.511 160.617 228.411 160.8L217.961 176.65C217.761 176.917 217.519 177.05 217.236 177.05Z" fill="#7852E1"/>
<path d="M340.925 122.1C340.258 122.1 339.575 122 338.875 121.8C338.192 121.583 337.592 121.267 337.075 120.85C336.942 120.733 336.833 120.583 336.75 120.4C336.667 120.217 336.625 120.042 336.625 119.875C336.625 119.675 336.708 119.483 336.875 119.3C337.058 119.1 337.292 119 337.575 119C337.792 119 338.042 119.108 338.325 119.325C338.692 119.608 339.1 119.833 339.55 120C340 120.167 340.45 120.25 340.9 120.25C341.833 120.25 342.642 120.075 343.325 119.725C344.008 119.375 344.533 118.883 344.9 118.25C345.267 117.617 345.45 116.875 345.45 116.025C345.45 115.258 345.275 114.592 344.925 114.025C344.592 113.442 344.117 112.992 343.5 112.675C342.9 112.358 342.208 112.2 341.425 112.2C340.842 112.2 340.317 112.292 339.85 112.475C339.4 112.642 339 112.817 338.65 113C338.317 113.183 338.025 113.275 337.775 113.275C337.458 113.275 337.217 113.208 337.05 113.075C336.883 112.925 336.775 112.742 336.725 112.525C336.675 112.308 336.658 112.108 336.675 111.925L337.65 105.45C337.7 105.233 337.817 105.042 338 104.875C338.183 104.708 338.408 104.625 338.675 104.625H346.1C346.367 104.625 346.592 104.717 346.775 104.9C346.958 105.083 347.05 105.317 347.05 105.6C347.05 105.867 346.958 106.092 346.775 106.275C346.592 106.442 346.367 106.525 346.1 106.525H339.175L339.425 106.3L338.5 111.95L338.1 111.425C338.283 111.258 338.558 111.092 338.925 110.925C339.308 110.758 339.742 110.617 340.225 110.5C340.725 110.383 341.233 110.325 341.75 110.325C342.833 110.325 343.8 110.575 344.65 111.075C345.517 111.558 346.2 112.225 346.7 113.075C347.2 113.925 347.45 114.9 347.45 116C347.45 117.217 347.183 118.283 346.65 119.2C346.117 120.117 345.358 120.833 344.375 121.35C343.408 121.85 342.258 122.1 340.925 122.1ZM356.417 122.25C355.033 122.25 353.875 121.858 352.942 121.075C352.025 120.292 351.325 119.217 350.842 117.85C350.375 116.483 350.142 114.95 350.142 113.25C350.142 111.517 350.375 109.975 350.842 108.625C351.325 107.275 352.025 106.208 352.942 105.425C353.875 104.642 355.033 104.25 356.417 104.25C357.8 104.25 358.95 104.642 359.867 105.425C360.8 106.208 361.5 107.275 361.967 108.625C362.433 109.975 362.667 111.517 362.667 113.25C362.667 114.95 362.433 116.483 361.967 117.85C361.5 119.217 360.8 120.292 359.867 121.075C358.95 121.858 357.8 122.25 356.417 122.25ZM356.417 120.225C357.3 120.225 358.042 119.942 358.642 119.375C359.258 118.808 359.725 118.008 360.042 116.975C360.358 115.925 360.517 114.683 360.517 113.25C360.517 111.8 360.358 110.558 360.042 109.525C359.725 108.475 359.258 107.675 358.642 107.125C358.042 106.558 357.3 106.275 356.417 106.275C355.533 106.275 354.783 106.558 354.167 107.125C353.567 107.675 353.1 108.475 352.767 109.525C352.45 110.558 352.292 111.8 352.292 113.25C352.292 114.683 352.45 115.925 352.767 116.975C353.1 118.008 353.567 118.808 354.167 119.375C354.783 119.942 355.533 120.225 356.417 120.225ZM368.556 113.625C367.79 113.625 367.131 113.417 366.581 113C366.048 112.567 365.631 112 365.331 111.3C365.048 110.583 364.906 109.808 364.906 108.975C364.906 108.125 365.048 107.342 365.331 106.625C365.631 105.908 366.056 105.342 366.606 104.925C367.156 104.492 367.815 104.275 368.581 104.275C369.348 104.275 369.998 104.492 370.531 104.925C371.081 105.342 371.498 105.908 371.781 106.625C372.065 107.325 372.206 108.1 372.206 108.95C372.206 109.8 372.056 110.583 371.756 111.3C371.456 112 371.031 112.567 370.481 113C369.948 113.417 369.306 113.625 368.556 113.625ZM368.581 112C369.215 112 369.681 111.717 369.981 111.15C370.281 110.567 370.431 109.842 370.431 108.975C370.431 108.092 370.273 107.358 369.956 106.775C369.64 106.192 369.173 105.9 368.556 105.9C367.923 105.9 367.448 106.2 367.131 106.8C366.831 107.383 366.681 108.1 366.681 108.95C366.681 109.833 366.84 110.567 367.156 111.15C367.49 111.717 367.965 112 368.581 112ZM378.981 122.225C378.231 122.225 377.581 122.017 377.031 121.6C376.498 121.167 376.081 120.6 375.781 119.9C375.481 119.183 375.331 118.408 375.331 117.575C375.331 116.725 375.473 115.942 375.756 115.225C376.056 114.508 376.481 113.942 377.031 113.525C377.581 113.092 378.24 112.875 379.006 112.875C379.79 112.875 380.448 113.092 380.981 113.525C381.531 113.942 381.948 114.508 382.231 115.225C382.515 115.925 382.656 116.7 382.656 117.55C382.656 118.4 382.506 119.183 382.206 119.9C381.906 120.6 381.481 121.167 380.931 121.6C380.398 122.017 379.748 122.225 378.981 122.225ZM379.006 120.6C379.656 120.6 380.131 120.317 380.431 119.75C380.731 119.167 380.881 118.442 380.881 117.575C380.881 116.692 380.723 115.958 380.406 115.375C380.09 114.792 379.615 114.5 378.981 114.5C378.348 114.5 377.873 114.8 377.556 115.4C377.256 115.983 377.106 116.7 377.106 117.55C377.106 118.433 377.265 119.167 377.581 119.75C377.915 120.317 378.39 120.6 379.006 120.6ZM368.456 122.05C368.256 122.05 368.056 121.975 367.856 121.825C367.656 121.675 367.556 121.467 367.556 121.2C367.556 121.05 367.615 120.875 367.731 120.675L378.181 104.85C378.381 104.567 378.615 104.425 378.881 104.425C379.098 104.425 379.298 104.5 379.481 104.65C379.681 104.8 379.781 105.008 379.781 105.275C379.781 105.442 379.731 105.617 379.631 105.8L369.181 121.65C368.981 121.917 368.74 122.05 368.456 122.05Z" fill="#7852E1"/>
<path d="M490.625 18.075C490.358 18.075 490.117 17.9917 489.9 17.825C489.7 17.6417 489.6 17.4083 489.6 17.125C489.6 16.975 489.633 16.825 489.7 16.675L496.15 2.05L496.45 2.5H488.4C488.133 2.5 487.908 2.41667 487.725 2.25C487.542 2.06667 487.45 1.83333 487.45 1.55C487.45 1.28333 487.542 1.06667 487.725 0.9C487.908 0.716666 488.133 0.624999 488.4 0.624999H497.425C497.725 0.624999 497.967 0.716666 498.15 0.9C498.35 1.08333 498.45 1.31667 498.45 1.6C498.45 1.75 498.417 1.9 498.35 2.05L491.575 17.45C491.492 17.65 491.358 17.8083 491.175 17.925C491.008 18.025 490.825 18.075 490.625 18.075ZM506.66 18.25C505.276 18.25 504.118 17.8583 503.185 17.075C502.268 16.2917 501.568 15.2167 501.085 13.85C500.618 12.4833 500.385 10.95 500.385 9.25C500.385 7.51667 500.618 5.975 501.085 4.625C501.568 3.275 502.268 2.20833 503.185 1.425C504.118 0.641666 505.276 0.249999 506.66 0.249999C508.043 0.249999 509.193 0.641666 510.11 1.425C511.043 2.20833 511.743 3.275 512.21 4.625C512.676 5.975 512.91 7.51667 512.91 9.25C512.91 10.95 512.676 12.4833 512.21 13.85C511.743 15.2167 511.043 16.2917 510.11 17.075C509.193 17.8583 508.043 18.25 506.66 18.25ZM506.66 16.225C507.543 16.225 508.285 15.9417 508.885 15.375C509.501 14.8083 509.968 14.0083 510.285 12.975C510.601 11.925 510.76 10.6833 510.76 9.25C510.76 7.8 510.601 6.55833 510.285 5.525C509.968 4.475 509.501 3.675 508.885 3.125C508.285 2.55833 507.543 2.275 506.66 2.275C505.776 2.275 505.026 2.55833 504.41 3.125C503.81 3.675 503.343 4.475 503.01 5.525C502.693 6.55833 502.535 7.8 502.535 9.25C502.535 10.6833 502.693 11.925 503.01 12.975C503.343 14.0083 503.81 14.8083 504.41 15.375C505.026 15.9417 505.776 16.225 506.66 16.225ZM518.799 9.625C518.033 9.625 517.374 9.41667 516.824 9C516.291 8.56667 515.874 8 515.574 7.3C515.291 6.58333 515.149 5.80833 515.149 4.975C515.149 4.125 515.291 3.34167 515.574 2.625C515.874 1.90833 516.299 1.34167 516.849 0.924999C517.399 0.491666 518.058 0.274999 518.824 0.274999C519.591 0.274999 520.241 0.491666 520.774 0.924999C521.324 1.34167 521.741 1.90833 522.024 2.625C522.308 3.325 522.449 4.1 522.449 4.95C522.449 5.8 522.299 6.58333 521.999 7.3C521.699 8 521.274 8.56667 520.724 9C520.191 9.41667 519.549 9.625 518.799 9.625ZM518.824 8C519.458 8 519.924 7.71667 520.224 7.15C520.524 6.56667 520.674 5.84167 520.674 4.975C520.674 4.09167 520.516 3.35833 520.199 2.775C519.883 2.19167 519.416 1.9 518.799 1.9C518.166 1.9 517.691 2.2 517.374 2.8C517.074 3.38333 516.924 4.1 516.924 4.95C516.924 5.83333 517.083 6.56667 517.399 7.15C517.733 7.71667 518.208 8 518.824 8ZM529.224 18.225C528.474 18.225 527.824 18.0167 527.274 17.6C526.741 17.1667 526.324 16.6 526.024 15.9C525.724 15.1833 525.574 14.4083 525.574 13.575C525.574 12.725 525.716 11.9417 525.999 11.225C526.299 10.5083 526.724 9.94167 527.274 9.525C527.824 9.09167 528.483 8.875 529.249 8.875C530.033 8.875 530.691 9.09167 531.224 9.525C531.774 9.94167 532.191 10.5083 532.474 11.225C532.758 11.925 532.899 12.7 532.899 13.55C532.899 14.4 532.749 15.1833 532.449 15.9C532.149 16.6 531.724 17.1667 531.174 17.6C530.641 18.0167 529.991 18.225 529.224 18.225ZM529.249 16.6C529.899 16.6 530.374 16.3167 530.674 15.75C530.974 15.1667 531.124 14.4417 531.124 13.575C531.124 12.6917 530.966 11.9583 530.649 11.375C530.333 10.7917 529.858 10.5 529.224 10.5C528.591 10.5 528.116 10.8 527.799 11.4C527.499 11.9833 527.349 12.7 527.349 13.55C527.349 14.4333 527.508 15.1667 527.824 15.75C528.158 16.3167 528.633 16.6 529.249 16.6ZM518.699 18.05C518.499 18.05 518.299 17.975 518.099 17.825C517.899 17.675 517.799 17.4667 517.799 17.2C517.799 17.05 517.858 16.875 517.974 16.675L528.424 0.849999C528.624 0.566666 528.858 0.425 529.124 0.425C529.341 0.425 529.541 0.5 529.724 0.65C529.924 0.799999 530.024 1.00833 530.024 1.275C530.024 1.44167 529.974 1.61667 529.874 1.8L519.424 17.65C519.224 17.9167 518.983 18.05 518.699 18.05Z" fill="#7852E1"/>
<defs>
<filter id="filter0_d_0_1" x="0" y="304" width="581" height="9" filterUnits="userSpaceOnUse" color-interpolation-filters="sRGB">
<feFlood flood-opacity="0" result="BackgroundImageFix"/>
<feColorMatrix in="SourceAlpha" type="matrix" values="0 0 0 0 0 0 0 0 0 0 0 0 0 0 0 0 0 0 127 0" result="hardAlpha"/>
<feOffset dy="4"/>
<feGaussianBlur stdDeviation="2"/>
<feComposite in2="hardAlpha" operator="out"/>
<feColorMatrix type="matrix" values="0 0 0 0 0 0 0 0 0 0 0 0 0 0 0 0 0 0 0.25 0"/>
<feBlend mode="normal" in2="BackgroundImageFix" result="effect1_dropShadow_0_1"/>
<feBlend mode="normal" in="SourceGraphic" in2="effect1_dropShadow_0_1" result="shape"/>
</filter>
</defs>
</svg>
